<svg width="116" height="52" viewBox="0 0 116 52" fill="none" xmlns="http://www.w3.org/2000/svg">
<g id="Logo">
<g id="Group 21">
<g id="Group 20">
<g id="Movo">
<path d="M0 34.7521V20.553C0 14.6962 3.46695 12.0403 7.92937 12.0403C10.7098 12.0403 12.9067 13.164 14.2454 15.2751C15.5498 13.164 17.7467 12.0403 20.5271 12.0403C24.9895 12.0403 28.4565 14.6962 28.4565 20.553V34.7521H23.4448V20.553C23.4448 17.7268 22.0031 16.6371 20.0809 16.6371C18.1929 16.6371 16.7169 17.7268 16.7169 20.553V34.7521H11.7396V20.553C11.7396 17.7268 10.2636 16.6371 8.37561 16.6371C6.45334 16.6371 5.01164 17.7268 5.01164 20.553V34.7521H0Z" fill="white"/>
<path d="M44.0275 35.1948C37.0249 35.1948 32.0819 30.2915 32.0819 23.6175C32.0819 16.9436 37.0249 12.0403 44.0275 12.0403C51.03 12.0403 55.973 16.9436 55.973 23.6175C55.973 30.2915 51.03 35.1948 44.0275 35.1948ZM44.0275 30.5979C48.1466 30.5979 50.8927 27.6696 50.8927 23.6175C50.8927 19.5655 48.1466 16.6371 44.0275 16.6371C39.9083 16.6371 37.1622 19.5655 37.1622 23.6175C37.1622 27.6696 39.9083 30.5979 44.0275 30.5979Z" fill="white"/>
<path d="M65.0209 34.7521L57.0916 12.4829H62.5151L67.8357 28.9976L73.1563 12.4829H78.4425L70.5131 34.7521H65.0209Z" fill="white"/>
<path d="M91.5265 35.1948C84.5239 35.1948 79.5809 30.2915 79.5809 23.6175C79.5809 16.9436 84.5239 12.0403 91.5265 12.0403C98.529 12.0403 103.472 16.9436 103.472 23.6175C103.472 30.2915 98.529 35.1948 91.5265 35.1948ZM91.5265 30.5979C95.6456 30.5979 98.3917 27.6696 98.3917 23.6175C98.3917 19.5655 95.6456 16.6371 91.5265 16.6371C87.4073 16.6371 84.6612 19.5655 84.6612 23.6175C84.6612 27.6696 87.4073 30.5979 91.5265 30.5979Z" fill="white"/>
</g>
<g id="hotel management">
<path d="M2.86423 43.0016C3.55421 43.0016 4.09176 43.1931 4.47686 43.5762C4.86197 43.9593 5.05452 44.4972 5.05452 45.19V49.457H4.09176V45.2878C4.09176 44.3505 3.6184 43.8818 2.67168 43.8818C2.22239 43.8818 1.82524 44.053 1.48025 44.3953C1.13526 44.7377 0.962766 45.2349 0.962766 45.8869V49.457H0V40.752H0.962766V44.0163C1.43613 43.3398 2.06995 43.0016 2.86423 43.0016Z" fill="#8D3FFF"/>
<path d="M11.8545 48.6989C11.2929 49.3021 10.5708 49.6037 9.6883 49.6037C8.80577 49.6037 8.08369 49.3021 7.52208 48.6989C6.96047 48.0958 6.67966 47.297 6.67966 46.3026C6.67966 45.3082 6.96047 44.5094 7.52208 43.9063C8.08369 43.3031 8.80577 43.0016 9.6883 43.0016C10.5708 43.0016 11.2929 43.3031 11.8545 43.9063C12.4161 44.5094 12.6969 45.3082 12.6969 46.3026C12.6969 47.297 12.4161 48.0958 11.8545 48.6989ZM8.23212 48.0876C8.59316 48.5115 9.07855 48.7234 9.6883 48.7234C10.2981 48.7234 10.7835 48.5115 11.1445 48.0876C11.5055 47.6556 11.686 47.0606 11.686 46.3026C11.686 45.5446 11.5055 44.9537 11.1445 44.5298C10.7835 44.0978 10.2981 43.8818 9.6883 43.8818C9.07855 43.8818 8.59316 44.0978 8.23212 44.5298C7.87108 44.9537 7.69057 45.5446 7.69057 46.3026C7.69057 47.0606 7.87108 47.6556 8.23212 48.0876Z" fill="#8D3FFF"/>
<path d="M16.6809 44.0041H15.4052V48.0999C15.4052 48.4585 15.6419 48.6378 16.1152 48.6378H16.6809V49.457C16.4161 49.4814 16.1874 49.4936 15.9949 49.4936C14.9599 49.4936 14.4424 49.0576 14.4424 48.1854V44.0041H13.4195V43.1483H14.4424V41.3633H15.4052V43.1483H16.6809V44.0041Z" fill="#8D3FFF"/>
<path d="M23.4778 46.3026V46.6449H18.7602C18.8083 47.3378 18.9969 47.8553 19.3258 48.1977C19.6628 48.54 20.1121 48.7112 20.6737 48.7112C21.5322 48.7112 22.0818 48.3199 22.3224 47.5375H23.3213C23.1609 48.1569 22.852 48.6582 22.3947 49.0413C21.9454 49.4162 21.3637 49.6037 20.6496 49.6037C19.7912 49.6037 19.0932 49.3062 18.5556 48.7112C18.0261 48.1162 17.7613 47.3133 17.7613 46.3026C17.7613 45.3082 18.0221 44.5094 18.5436 43.9063C19.0731 43.3031 19.7671 43.0016 20.6256 43.0016C21.5161 43.0016 22.2141 43.3154 22.7196 43.943C23.225 44.5706 23.4778 45.3571 23.4778 46.3026ZM20.6256 43.8941C20.1281 43.8941 19.715 44.053 19.386 44.3709C19.0651 44.6888 18.8645 45.1534 18.7843 45.7647H22.4428C22.3947 45.2186 22.2101 44.7703 21.8892 44.4198C21.5763 44.0693 21.1551 43.8941 20.6256 43.8941Z" fill="#8D3FFF"/>
<path d="M25.1015 49.457V40.752H26.0643V49.457H25.1015Z" fill="#8D3FFF"/>
<path d="M37.3 43.0016C37.99 43.0016 38.5155 43.2053 38.8766 43.6129C39.2456 44.0123 39.4302 44.5339 39.4302 45.1778V49.457H38.4674V45.2756C38.4674 44.3464 38.0342 43.8818 37.1677 43.8818C36.7344 43.8818 36.3613 44.0612 36.0484 44.4198C35.7355 44.7703 35.5791 45.3001 35.5791 46.0092V49.457H34.6163V45.2756C34.6163 44.3464 34.1831 43.8818 33.3166 43.8818C32.8914 43.8818 32.5183 44.0612 32.1974 44.4198C31.8845 44.7784 31.728 45.3082 31.728 46.0092V49.457H30.7653V43.1483H31.6799V44.0775C32.0891 43.3602 32.6868 43.0016 33.473 43.0016C34.4037 43.0016 35.0416 43.3969 35.3865 44.1875C35.8198 43.3969 36.4576 43.0016 37.3 43.0016Z" fill="#8D3FFF"/>
<path d="M46.4324 48.6623H46.7814V49.457C46.6209 49.4814 46.4444 49.4936 46.2519 49.4936C45.602 49.4936 45.253 49.1921 45.2049 48.5889C44.7716 49.2654 44.0977 49.6037 43.1831 49.6037C42.5011 49.6037 41.9636 49.4447 41.5704 49.1269C41.1853 48.8008 40.9928 48.3444 40.9928 47.7575C40.9928 46.6164 41.759 45.9644 43.2914 45.8013L44.1819 45.7035C44.8318 45.6302 45.1567 45.3408 45.1567 44.8355C45.1567 44.4931 45.0524 44.2446 44.8438 44.0897C44.6352 43.9267 44.2742 43.8452 43.7607 43.8452C43.2232 43.8452 42.8341 43.9389 42.5934 44.1264C42.3607 44.3057 42.2283 44.6276 42.1962 45.0922H41.2335C41.3137 43.6985 42.1561 43.0016 43.7607 43.0016C45.3172 43.0016 46.0954 43.6129 46.0954 44.8355V48.3566C46.0954 48.5604 46.2078 48.6623 46.4324 48.6623ZM43.2312 48.7723C43.7447 48.7723 44.194 48.6174 44.5791 48.3077C44.9642 47.9898 45.1567 47.5415 45.1567 46.9628V46.217C44.9722 46.3637 44.6994 46.4534 44.3384 46.486L43.4358 46.596C42.8983 46.6612 42.5212 46.7876 42.3045 46.9751C42.0959 47.1544 41.9916 47.407 41.9916 47.7331C41.9916 48.0591 42.0919 48.3159 42.2925 48.5033C42.5011 48.6826 42.814 48.7723 43.2312 48.7723Z" fill="#8D3FFF"/>
<path d="M50.9753 43.0016C51.6653 43.0016 52.2028 43.1931 52.5879 43.5762C52.973 43.9593 53.1656 44.4972 53.1656 45.19V49.457H52.2028V45.2878C52.2028 44.3505 51.7294 43.8818 50.7827 43.8818C50.3334 43.8818 49.9363 44.053 49.5913 44.3953C49.2463 44.7377 49.0738 45.2349 49.0738 45.8869V49.457H48.111V43.1483H49.0257V44.0897C49.491 43.3643 50.1409 43.0016 50.9753 43.0016Z" fill="#8D3FFF"/>
<path d="M60.1702 48.6623H60.5192V49.457C60.3587 49.4814 60.1822 49.4936 59.9896 49.4936C59.3398 49.4936 58.9908 49.1921 58.9426 48.5889C58.5094 49.2654 57.8354 49.6037 56.9208 49.6037C56.2389 49.6037 55.7013 49.4447 55.3082 49.1269C54.9231 48.8008 54.7305 48.3444 54.7305 47.7575C54.7305 46.6164 55.4967 45.9644 57.0291 45.8013L57.9197 45.7035C58.5696 45.6302 58.8945 45.3408 58.8945 44.8355C58.8945 44.4931 58.7902 44.2446 58.5816 44.0897C58.373 43.9267 58.012 43.8452 57.4985 43.8452C56.9609 43.8452 56.5718 43.9389 56.3311 44.1264C56.0985 44.3057 55.9661 44.6276 55.934 45.0922H54.9712C55.0514 43.6985 55.8939 43.0016 57.4985 43.0016C59.055 43.0016 59.8332 43.6129 59.8332 44.8355V48.3566C59.8332 48.5604 59.9455 48.6623 60.1702 48.6623ZM56.969 48.7723C57.4824 48.7723 57.9317 48.6174 58.3168 48.3077C58.7019 47.9898 58.8945 47.5415 58.8945 46.9628V46.217C58.71 46.3637 58.4372 46.4534 58.0761 46.486L57.1735 46.596C56.636 46.6612 56.2589 46.7876 56.0423 46.9751C55.8337 47.1544 55.7294 47.407 55.7294 47.7331C55.7294 48.0591 55.8297 48.3159 56.0303 48.5033C56.2389 48.6826 56.5518 48.7723 56.969 48.7723Z" fill="#8D3FFF"/>
<path d="M66.4488 43.1483H67.3634V49.2124C67.3634 50.0601 67.1187 50.7366 66.6293 51.242C66.1399 51.7473 65.4219 52 64.4752 52C63.6969 52 63.0751 51.8166 62.6098 51.4498C62.1525 51.0912 61.8917 50.5981 61.8275 49.9705H62.7903C62.9107 50.7692 63.4723 51.1686 64.4752 51.1686C65.7588 51.1686 66.4007 50.5166 66.4007 49.2124V48.6011C65.9033 49.2695 65.2093 49.6037 64.3187 49.6037C63.4442 49.6037 62.7422 49.3062 62.2127 48.7112C61.6912 48.108 61.4304 47.3052 61.4304 46.3026C61.4304 45.3001 61.6912 44.5013 62.2127 43.9063C62.7422 43.3031 63.4442 43.0016 64.3187 43.0016C65.2414 43.0016 65.9514 43.3561 66.4488 44.0652V43.1483ZM64.439 48.7234C65.0488 48.7234 65.5342 48.5115 65.8952 48.0876C66.2563 47.6556 66.4368 47.0606 66.4368 46.3026C66.4368 45.5446 66.2563 44.9537 65.8952 44.5298C65.5342 44.0978 65.0488 43.8818 64.439 43.8818C63.8373 43.8818 63.3519 44.1019 62.9829 44.5421C62.6218 44.9822 62.4413 45.569 62.4413 46.3026C62.4413 47.0362 62.6218 47.623 62.9829 48.0632C63.3519 48.5033 63.8373 48.7234 64.439 48.7234Z" fill="#8D3FFF"/>
<path d="M74.7032 46.3026V46.6449H69.9857C70.0338 47.3378 70.2224 47.8553 70.5513 48.1977C70.8883 48.54 71.3376 48.7112 71.8992 48.7112C72.7576 48.7112 73.3072 48.3199 73.5479 47.5375H74.5468C74.3863 48.1569 74.0774 48.6582 73.6201 49.0413C73.1708 49.4162 72.5891 49.6037 71.8751 49.6037C71.0166 49.6037 70.3186 49.3062 69.7811 48.7112C69.2516 48.1162 68.9868 47.3133 68.9868 46.3026C68.9868 45.3082 69.2476 44.5094 69.7691 43.9063C70.2986 43.3031 70.9926 43.0016 71.851 43.0016C72.7416 43.0016 73.4396 43.3154 73.945 43.943C74.4505 44.5706 74.7032 45.3571 74.7032 46.3026ZM71.851 43.8941C71.3536 43.8941 70.9404 44.053 70.6115 44.3709C70.2905 44.6888 70.09 45.1534 70.0097 45.7647H73.6683C73.6201 45.2186 73.4356 44.7703 73.1147 44.4198C72.8018 44.0693 72.3805 43.8941 71.851 43.8941Z" fill="#8D3FFF"/>
<path d="M82.8617 43.0016C83.5517 43.0016 84.0772 43.2053 84.4383 43.6129C84.8073 44.0123 84.9919 44.5339 84.9919 45.1778V49.457H84.0291V45.2756C84.0291 44.3464 83.5958 43.8818 82.7293 43.8818C82.2961 43.8818 81.923 44.0612 81.6101 44.4198C81.2972 44.7703 81.1408 45.3001 81.1408 46.0092V49.457H80.178V45.2756C80.178 44.3464 79.7448 43.8818 78.8783 43.8818C78.4531 43.8818 78.08 44.0612 77.7591 44.4198C77.4462 44.7784 77.2897 45.3082 77.2897 46.0092V49.457H76.327V43.1483H77.2416V44.0775C77.6508 43.3602 78.2485 43.0016 79.0347 43.0016C79.9654 43.0016 80.6032 43.3969 80.9482 44.1875C81.3815 43.3969 82.0193 43.0016 82.8617 43.0016Z" fill="#8D3FFF"/>
<path d="M92.3311 46.3026V46.6449H87.6135C87.6617 47.3378 87.8502 47.8553 88.1791 48.1977C88.5161 48.54 88.9654 48.7112 89.527 48.7112C90.3855 48.7112 90.9351 48.3199 91.1757 47.5375H92.1746C92.0141 48.1569 91.7053 48.6582 91.2479 49.0413C90.7987 49.4162 90.217 49.6037 89.5029 49.6037C88.6445 49.6037 87.9465 49.3062 87.4089 48.7112C86.8794 48.1162 86.6146 47.3133 86.6146 46.3026C86.6146 45.3082 86.8754 44.5094 87.3969 43.9063C87.9264 43.3031 88.6204 43.0016 89.4789 43.0016C90.3694 43.0016 91.0674 43.3154 91.5729 43.943C92.0783 44.5706 92.3311 45.3571 92.3311 46.3026ZM89.4789 43.8941C88.9814 43.8941 88.5683 44.053 88.2393 44.3709C87.9184 44.6888 87.7178 45.1534 87.6376 45.7647H91.2961C91.2479 45.2186 91.0634 44.7703 90.7425 44.4198C90.4296 44.0693 90.0084 43.8941 89.4789 43.8941Z" fill="#8D3FFF"/>
<path d="M96.819 43.0016C97.509 43.0016 98.0465 43.1931 98.4316 43.5762C98.8167 43.9593 99.0093 44.4972 99.0093 45.19V49.457H98.0465V45.2878C98.0465 44.3505 97.5732 43.8818 96.6265 43.8818C96.1772 43.8818 95.78 44.053 95.435 44.3953C95.09 44.7377 94.9176 45.2349 94.9176 45.8869V49.457H93.9548V43.1483H94.8694V44.0897C95.3348 43.3643 95.9846 43.0016 96.819 43.0016Z" fill="#8D3FFF"/>
<path d="M103.42 44.0041H102.144V48.0999C102.144 48.4585 102.381 48.6378 102.854 48.6378H103.42V49.457C103.155 49.4814 102.927 49.4936 102.734 49.4936C101.699 49.4936 101.182 49.0576 101.182 48.1854V44.0041H100.159V43.1483H101.182V41.3633H102.144V43.1483H103.42V44.0041Z" fill="#8D3FFF"/>
</g>
</g>
<path id="Ellipse 5" d="M90.944 7.62939e-06C104.782 7.62939e-06 116 11.4033 116 25.47V7.62939e-06H90.944Z" fill="#8D3FFF"/>
</g>
</g>
</svg>
