<svg xmlns="http://www.w3.org/2000/svg" width="24" height="25" viewBox="0 0 24 25" fill="none">
  <path d="M4 5.3252C4 5.59041 4.10536 5.84477 4.29289 6.0323C4.48043 6.21984 4.73478 6.3252 5 6.3252C5.26522 6.3252 5.51957 6.21984 5.70711 6.0323C5.89464 5.84477 6 5.59041 6 5.3252C6 5.05998 5.89464 4.80563 5.70711 4.61809C5.51957 4.43055 5.26522 4.3252 5 4.3252C4.73478 4.3252 4.48043 4.43055 4.29289 4.61809C4.10536 4.80563 4 5.05998 4 5.3252Z" fill="#fff" stroke="#fff" stroke-width="2" stroke-linecap="round" stroke-linejoin="round"/>
  <path d="M11 5.3252C11 5.59041 11.1054 5.84477 11.2929 6.0323C11.4804 6.21984 11.7348 6.3252 12 6.3252C12.2652 6.3252 12.5196 6.21984 12.7071 6.0323C12.8946 5.84477 13 5.59041 13 5.3252C13 5.05998 12.8946 4.80563 12.7071 4.61809C12.5196 4.43055 12.2652 4.3252 12 4.3252C11.7348 4.3252 11.4804 4.43055 11.2929 4.61809C11.1054 4.80563 11 5.05998 11 5.3252Z" fill="#fff" stroke="#fff" stroke-width="2" stroke-linecap="round" stroke-linejoin="round"/>
  <path d="M18 5.3252C18 5.59041 18.1054 5.84477 18.2929 6.0323C18.4804 6.21984 18.7348 6.3252 19 6.3252C19.2652 6.3252 19.5196 6.21984 19.7071 6.0323C19.8946 5.84477 20 5.59041 20 5.3252C20 5.05998 19.8946 4.80563 19.7071 4.61809C19.5196 4.43055 19.2652 4.3252 19 4.3252C18.7348 4.3252 18.4804 4.43055 18.2929 4.61809C18.1054 4.80563 18 5.05998 18 5.3252Z" fill="#fff" stroke="#fff" stroke-width="2" stroke-linecap="round" stroke-linejoin="round"/>
  <path d="M4 12.3252C4 12.5904 4.10536 12.8448 4.29289 13.0323C4.48043 13.2198 4.73478 13.3252 5 13.3252C5.26522 13.3252 5.51957 13.2198 5.70711 13.0323C5.89464 12.8448 6 12.5904 6 12.3252C6 12.06 5.89464 11.8056 5.70711 11.6181C5.51957 11.4306 5.26522 11.3252 5 11.3252C4.73478 11.3252 4.48043 11.4306 4.29289 11.6181C4.10536 11.8056 4 12.06 4 12.3252Z" fill="#fff" stroke="#fff" stroke-width="2" stroke-linecap="round" stroke-linejoin="round"/>
  <path d="M11 12.3252C11 12.5904 11.1054 12.8448 11.2929 13.0323C11.4804 13.2198 11.7348 13.3252 12 13.3252C12.2652 13.3252 12.5196 13.2198 12.7071 13.0323C12.8946 12.8448 13 12.5904 13 12.3252C13 12.06 12.8946 11.8056 12.7071 11.6181C12.5196 11.4306 12.2652 11.3252 12 11.3252C11.7348 11.3252 11.4804 11.4306 11.2929 11.6181C11.1054 11.8056 11 12.06 11 12.3252Z" fill="#fff" stroke="#fff" stroke-width="2" stroke-linecap="round" stroke-linejoin="round"/>
  <path d="M18 12.3252C18 12.5904 18.1054 12.8448 18.2929 13.0323C18.4804 13.2198 18.7348 13.3252 19 13.3252C19.2652 13.3252 19.5196 13.2198 19.7071 13.0323C19.8946 12.8448 20 12.5904 20 12.3252C20 12.06 19.8946 11.8056 19.7071 11.6181C19.5196 11.4306 19.2652 11.3252 19 11.3252C18.7348 11.3252 18.4804 11.4306 18.2929 11.6181C18.1054 11.8056 18 12.06 18 12.3252Z" fill="#fff" stroke="#fff" stroke-width="2" stroke-linecap="round" stroke-linejoin="round"/>
  <path d="M4 19.3252C4 19.5904 4.10536 19.8448 4.29289 20.0323C4.48043 20.2198 4.73478 20.3252 5 20.3252C5.26522 20.3252 5.51957 20.2198 5.70711 20.0323C5.89464 19.8448 6 19.5904 6 19.3252C6 19.06 5.89464 18.8056 5.70711 18.6181C5.51957 18.4306 5.26522 18.3252 5 18.3252C4.73478 18.3252 4.48043 18.4306 4.29289 18.6181C4.10536 18.8056 4 19.06 4 19.3252Z" fill="#fff" stroke="#fff" stroke-width="2" stroke-linecap="round" stroke-linejoin="round"/>
  <path d="M11 19.3252C11 19.5904 11.1054 19.8448 11.2929 20.0323C11.4804 20.2198 11.7348 20.3252 12 20.3252C12.2652 20.3252 12.5196 20.2198 12.7071 20.0323C12.8946 19.8448 13 19.5904 13 19.3252C13 19.06 12.8946 18.8056 12.7071 18.6181C12.5196 18.4306 12.2652 18.3252 12 18.3252C11.7348 18.3252 11.4804 18.4306 11.2929 18.6181C11.1054 18.8056 11 19.06 11 19.3252Z" fill="#fff" stroke="#fff" stroke-width="2" stroke-linecap="round" stroke-linejoin="round"/>
  <path d="M18 19.3252C18 19.5904 18.1054 19.8448 18.2929 20.0323C18.4804 20.2198 18.7348 20.3252 19 20.3252C19.2652 20.3252 19.5196 20.2198 19.7071 20.0323C19.8946 19.8448 20 19.5904 20 19.3252C20 19.06 19.8946 18.8056 19.7071 18.6181C19.5196 18.4306 19.2652 18.3252 19 18.3252C18.7348 18.3252 18.4804 18.4306 18.2929 18.6181C18.1054 18.8056 18 19.06 18 19.3252Z" fill="#fff" stroke="#fff" stroke-width="2" stroke-linecap="round" stroke-linejoin="round"/>
</svg>
