<svg width="20" height="20" viewBox="0 0 20 20" fill="none" xmlns="http://www.w3.org/2000/svg">
<g id="device-desktop">
<path id="Vector" d="M5.83333 16.6666H14.1667M7.5 13.3333V16.6666M12.5 13.3333V16.6666M2.5 4.16659C2.5 3.94557 2.5878 3.73361 2.74408 3.57733C2.90036 3.42105 3.11232 3.33325 3.33333 3.33325H16.6667C16.8877 3.33325 17.0996 3.42105 17.2559 3.57733C17.4122 3.73361 17.5 3.94557 17.5 4.16659V12.4999C17.5 12.7209 17.4122 12.9329 17.2559 13.0892C17.0996 13.2455 16.8877 13.3333 16.6667 13.3333H3.33333C3.11232 13.3333 2.90036 13.2455 2.74408 13.0892C2.5878 12.9329 2.5 12.7209 2.5 12.4999V4.16659Z" stroke="white" stroke-opacity="0.7" stroke-width="1.5" stroke-linecap="round" stroke-linejoin="round"/>
</g>
</svg>
