<svg width="20" height="20" viewBox="0 0 20 20" fill="none" xmlns="http://www.w3.org/2000/svg">
<g id="file-export">
<path id="Vector" d="M11.667 2.5V5.83333C11.667 6.05435 11.7548 6.26631 11.9111 6.42259C12.0674 6.57887 12.2793 6.66667 12.5003 6.66667H15.8337M11.667 2.5H5.83366C5.39163 2.5 4.96771 2.67559 4.65515 2.98816C4.34259 3.30072 4.16699 3.72464 4.16699 4.16667V15.8333C4.16699 16.2754 4.34259 16.6993 4.65515 17.0118C4.96771 17.3244 5.39163 17.5 5.83366 17.5H9.58366M11.667 2.5L15.8337 6.66667M15.8337 6.66667V10.8333M11.667 15.8333H17.5003M17.5003 15.8333L15.0003 13.3333M17.5003 15.8333L15.0003 18.3333" stroke="white" stroke-opacity="0.7" stroke-width="1.5" stroke-linecap="round" stroke-linejoin="round"/>
</g>
</svg>
