<svg width="20" height="20" viewBox="0 0 20 20" fill="none" xmlns="http://www.w3.org/2000/svg">
<g id="home-stats">
<path id="Vector" d="M15.8333 10.8333V10H17.5L10 2.5L2.5 10H4.16667V15.8333C4.16667 16.2754 4.34226 16.6993 4.65482 17.0118C4.96738 17.3244 5.39131 17.5 5.83333 17.5H7.91667M7.5 17.5V12.5C7.5 12.058 7.6756 11.6341 7.98816 11.3215C8.30072 11.0089 8.72464 10.8333 9.16667 10.8333H10.8333C11.2754 10.8333 11.6993 11.0089 12.0118 11.3215C12.3244 11.6341 12.5 12.058 12.5 12.5M10.8333 18.3333L13.3333 15.8333L15 17.5L18.3333 14.1667M18.3333 14.1667H15.8333M18.3333 14.1667V16.6667" stroke="white" stroke-opacity="0.7" stroke-width="1.5" stroke-linecap="round" stroke-linejoin="round"/>
</g>
</svg>
