<svg width="20" height="20" viewBox="0 0 20 20" fill="none" xmlns="http://www.w3.org/2000/svg">
<g id="layout-grid">
<g id="Vector">
<path d="M3.3335 4.16671C3.3335 3.94569 3.42129 3.73373 3.57757 3.57745C3.73385 3.42117 3.94582 3.33337 4.16683 3.33337H7.50016C7.72118 3.33337 7.93314 3.42117 8.08942 3.57745C8.2457 3.73373 8.3335 3.94569 8.3335 4.16671V7.50004C8.3335 7.72105 8.2457 7.93302 8.08942 8.0893C7.93314 8.24558 7.72118 8.33337 7.50016 8.33337H4.16683C3.94582 8.33337 3.73385 8.24558 3.57757 8.0893C3.42129 7.93302 3.3335 7.72105 3.3335 7.50004V4.16671Z" stroke="white" stroke-opacity="0.7" stroke-width="1.5" stroke-linecap="round" stroke-linejoin="round"/>
<path d="M11.6668 4.16671C11.6668 3.94569 11.7546 3.73373 11.9109 3.57745C12.0672 3.42117 12.2791 3.33337 12.5002 3.33337H15.8335C16.0545 3.33337 16.2665 3.42117 16.4228 3.57745C16.579 3.73373 16.6668 3.94569 16.6668 4.16671V7.50004C16.6668 7.72105 16.579 7.93302 16.4228 8.0893C16.2665 8.24558 16.0545 8.33337 15.8335 8.33337H12.5002C12.2791 8.33337 12.0672 8.24558 11.9109 8.0893C11.7546 7.93302 11.6668 7.72105 11.6668 7.50004V4.16671Z" stroke="white" stroke-opacity="0.7" stroke-width="1.5" stroke-linecap="round" stroke-linejoin="round"/>
<path d="M3.3335 12.5C3.3335 12.279 3.42129 12.0671 3.57757 11.9108C3.73385 11.7545 3.94582 11.6667 4.16683 11.6667H7.50016C7.72118 11.6667 7.93314 11.7545 8.08942 11.9108C8.2457 12.0671 8.3335 12.279 8.3335 12.5V15.8334C8.3335 16.0544 8.2457 16.2663 8.08942 16.4226C7.93314 16.5789 7.72118 16.6667 7.50016 16.6667H4.16683C3.94582 16.6667 3.73385 16.5789 3.57757 16.4226C3.42129 16.2663 3.3335 16.0544 3.3335 15.8334V12.5Z" stroke="white" stroke-opacity="0.7" stroke-width="1.5" stroke-linecap="round" stroke-linejoin="round"/>
<path d="M11.6668 12.5C11.6668 12.279 11.7546 12.0671 11.9109 11.9108C12.0672 11.7545 12.2791 11.6667 12.5002 11.6667H15.8335C16.0545 11.6667 16.2665 11.7545 16.4228 11.9108C16.579 12.0671 16.6668 12.279 16.6668 12.5V15.8334C16.6668 16.0544 16.579 16.2663 16.4228 16.4226C16.2665 16.5789 16.0545 16.6667 15.8335 16.6667H12.5002C12.2791 16.6667 12.0672 16.5789 11.9109 16.4226C11.7546 16.2663 11.6668 16.0544 11.6668 15.8334V12.5Z" stroke="white" stroke-opacity="0.7" stroke-width="1.5" stroke-linecap="round" stroke-linejoin="round"/>
</g>
</g>
</svg>
