<svg width="72" height="32" viewBox="0 0 72 32" fill="none" xmlns="http://www.w3.org/2000/svg">
<path d="M0 21.3859V12.648C0 9.04386 2.12933 7.40942 4.87005 7.40942C6.57772 7.40942 7.927 8.10092 8.74921 9.40008C9.55035 8.10092 10.8996 7.40942 12.6073 7.40942C15.348 7.40942 17.4773 9.04386 17.4773 12.648V21.3859H14.3993V12.648C14.3993 10.9088 13.5138 10.2383 12.3332 10.2383C11.1737 10.2383 10.2672 10.9088 10.2672 12.648V21.3859H7.2102V12.648C7.2102 10.9088 6.30365 10.2383 5.14412 10.2383C3.9635 10.2383 3.07804 10.9088 3.07804 12.648V21.3859H0Z" fill="white"/>
<path d="M27.0407 21.6584C22.7399 21.6584 19.704 18.6409 19.704 14.5339C19.704 10.4268 22.7399 7.40942 27.0407 7.40942C31.3415 7.40942 34.3774 10.4268 34.3774 14.5339C34.3774 18.6409 31.3415 21.6584 27.0407 21.6584ZM27.0407 18.8295C29.5706 18.8295 31.2572 17.0275 31.2572 14.5339C31.2572 12.0403 29.5706 10.2383 27.0407 10.2383C24.5108 10.2383 22.8242 12.0403 22.8242 14.5339C22.8242 17.0275 24.5108 18.8295 27.0407 18.8295Z" fill="white"/>
<path d="M39.9344 21.3859L35.0644 7.68183H38.3954L41.6632 17.8447L44.931 7.68183H48.1777L43.3076 21.3859H39.9344Z" fill="white"/>
<path d="M56.2135 21.6584C51.9127 21.6584 48.8768 18.6409 48.8768 14.5339C48.8768 10.4268 51.9127 7.40942 56.2135 7.40942C60.5144 7.40942 63.5502 10.4268 63.5502 14.5339C63.5502 18.6409 60.5144 21.6584 56.2135 21.6584ZM56.2135 18.8295C58.7434 18.8295 60.43 17.0275 60.43 14.5339C60.43 12.0403 58.7434 10.2383 56.2135 10.2383C53.6836 10.2383 51.997 12.0403 51.997 14.5339C51.997 17.0275 53.6836 18.8295 56.2135 18.8295Z" fill="white"/>
<path d="M1.75915 26.4625C2.18292 26.4625 2.51307 26.5804 2.74959 26.8161C2.98611 27.0519 3.10438 27.3829 3.10438 27.8093V30.4351H2.51307V27.8694C2.51307 27.2926 2.22234 27.0042 1.64088 27.0042C1.36494 27.0042 1.12102 27.1095 0.909139 27.3202C0.697253 27.5309 0.59131 27.8368 0.59131 28.2381V30.4351H0V25.0781H0.59131V27.087C0.882037 26.6707 1.27132 26.4625 1.75915 26.4625Z" fill="#8D3FFF"/>
<path d="M7.28079 29.9686C6.93586 30.3397 6.49238 30.5253 5.95034 30.5253C5.40831 30.5253 4.96483 30.3397 4.6199 29.9686C4.27497 29.5974 4.1025 29.1059 4.1025 28.4939C4.1025 27.882 4.27497 27.3904 4.6199 27.0193C4.96483 26.6481 5.40831 26.4625 5.95034 26.4625C6.49238 26.4625 6.93586 26.6481 7.28079 27.0193C7.62572 27.3904 7.79819 27.882 7.79819 28.4939C7.79819 29.1059 7.62572 29.5974 7.28079 29.9686ZM5.05599 29.5924C5.27773 29.8532 5.57585 29.9836 5.95034 29.9836C6.32484 29.9836 6.62296 29.8532 6.8447 29.5924C7.06644 29.3265 7.17731 28.9604 7.17731 28.4939C7.17731 28.0274 7.06644 27.6638 6.8447 27.403C6.62296 27.1371 6.32484 27.0042 5.95034 27.0042C5.57585 27.0042 5.27773 27.1371 5.05599 27.403C4.83425 27.6638 4.72338 28.0274 4.72338 28.4939C4.72338 28.9604 4.83425 29.3265 5.05599 29.5924Z" fill="#8D3FFF"/>
<path d="M10.245 27.0794H9.46153V29.5999C9.46153 29.8206 9.6069 29.931 9.89763 29.931H10.245V30.4351C10.0824 30.4501 9.94197 30.4576 9.82371 30.4576C9.18805 30.4576 8.87022 30.1893 8.87022 29.6526V27.0794H8.24196V26.5528H8.87022V25.4543H9.46153V26.5528H10.245V27.0794Z" fill="#8D3FFF"/>
<path d="M14.4195 28.4939V28.7046H11.5221C11.5517 29.1309 11.6675 29.4494 11.8695 29.6601C12.0765 29.8708 12.3524 29.9761 12.6973 29.9761C13.2246 29.9761 13.5621 29.7353 13.71 29.2538H14.3234C14.2249 29.635 14.0352 29.9435 13.7543 30.1792C13.4784 30.41 13.1211 30.5253 12.6826 30.5253C12.1553 30.5253 11.7266 30.3423 11.3965 29.9761C11.0712 29.6099 10.9086 29.1159 10.9086 28.4939C10.9086 27.882 11.0688 27.3904 11.3891 27.0193C11.7143 26.6481 12.1405 26.4625 12.6678 26.4625C13.2147 26.4625 13.6434 26.6556 13.9539 27.0418C14.2643 27.428 14.4195 27.9121 14.4195 28.4939ZM12.6678 27.0117C12.3623 27.0117 12.1085 27.1095 11.9065 27.3052C11.7094 27.5008 11.5862 27.7867 11.5369 28.1629H13.7839C13.7543 27.8268 13.641 27.5509 13.4439 27.3353C13.2517 27.1196 12.993 27.0117 12.6678 27.0117Z" fill="#8D3FFF"/>
<path d="M15.4168 30.4351V25.0781H16.0081V30.4351H15.4168Z" fill="#8D3FFF"/>
<path d="M22.9089 26.4625C23.3326 26.4625 23.6554 26.5879 23.8771 26.8387C24.1038 27.0845 24.2171 27.4055 24.2171 27.8017V30.4351H23.6258V27.8619C23.6258 27.2901 23.3597 27.0042 22.8276 27.0042C22.5615 27.0042 22.3323 27.1146 22.1402 27.3353C21.948 27.5509 21.8519 27.877 21.8519 28.3133V30.4351H21.2606V27.8619C21.2606 27.2901 20.9945 27.0042 20.4623 27.0042C20.2012 27.0042 19.972 27.1146 19.7749 27.3353C19.5828 27.556 19.4867 27.882 19.4867 28.3133V30.4351H18.8954V26.5528H19.4571V27.1246C19.7084 26.6832 20.0755 26.4625 20.5584 26.4625C21.13 26.4625 21.5218 26.7058 21.7336 27.1923C21.9997 26.7058 22.3915 26.4625 22.9089 26.4625Z" fill="#8D3FFF"/>
<path d="M28.5178 29.946H28.7321V30.4351C28.6336 30.4501 28.5252 30.4576 28.4069 30.4576C28.0078 30.4576 27.7934 30.272 27.7638 29.9009C27.4978 30.3172 27.0838 30.5253 26.5221 30.5253C26.1032 30.5253 25.7731 30.4275 25.5317 30.2319C25.2951 30.0313 25.1769 29.7504 25.1769 29.3892C25.1769 28.687 25.6474 28.2858 26.5886 28.1854L27.1356 28.1253C27.5347 28.0801 27.7343 27.902 27.7343 27.5911C27.7343 27.3804 27.6702 27.2274 27.5421 27.1321C27.414 27.0318 27.1922 26.9816 26.8769 26.9816C26.5467 26.9816 26.3077 27.0393 26.1599 27.1547C26.017 27.265 25.9357 27.4632 25.916 27.7491H25.3247C25.374 26.8914 25.8914 26.4625 26.8769 26.4625C27.8328 26.4625 28.3108 26.8387 28.3108 27.5911V29.7579C28.3108 29.8833 28.3798 29.946 28.5178 29.946ZM26.5517 30.0137C26.867 30.0137 27.143 29.9184 27.3795 29.7278C27.616 29.5322 27.7343 29.2563 27.7343 28.9002V28.4413C27.6209 28.5315 27.4534 28.5867 27.2317 28.6068L26.6773 28.6745C26.3472 28.7146 26.1156 28.7924 25.9825 28.9077C25.8544 29.0181 25.7903 29.1736 25.7903 29.3742C25.7903 29.5748 25.8519 29.7328 25.9751 29.8482C26.1032 29.9585 26.2954 30.0137 26.5517 30.0137Z" fill="#8D3FFF"/>
<path d="M31.3079 26.4625C31.7317 26.4625 32.0618 26.5804 32.2983 26.8161C32.5349 27.0519 32.6531 27.3829 32.6531 27.8093V30.4351H32.0618V27.8694C32.0618 27.2926 31.7711 27.0042 31.1896 27.0042C30.9137 27.0042 30.6698 27.1095 30.4579 27.3202C30.246 27.5309 30.1401 27.8368 30.1401 28.2381V30.4351H29.5487V26.5528H30.1105V27.1321C30.3963 26.6857 30.7954 26.4625 31.3079 26.4625Z" fill="#8D3FFF"/>
<path d="M36.9552 29.946H37.1695V30.4351C37.071 30.4501 36.9626 30.4576 36.8443 30.4576C36.4452 30.4576 36.2308 30.272 36.2013 29.9009C35.9352 30.3172 35.5213 30.5253 34.9595 30.5253C34.5407 30.5253 34.2105 30.4275 33.9691 30.2319C33.7325 30.0313 33.6143 29.7504 33.6143 29.3892C33.6143 28.687 34.0849 28.2858 35.026 28.1854L35.573 28.1253C35.9721 28.0801 36.1717 27.902 36.1717 27.5911C36.1717 27.3804 36.1076 27.2274 35.9795 27.1321C35.8514 27.0318 35.6297 26.9816 35.3143 26.9816C34.9842 26.9816 34.7452 27.0393 34.5973 27.1547C34.4544 27.265 34.3731 27.4632 34.3534 27.7491H33.7621C33.8114 26.8914 34.3288 26.4625 35.3143 26.4625C36.2703 26.4625 36.7482 26.8387 36.7482 27.5911V29.7579C36.7482 29.8833 36.8172 29.946 36.9552 29.946ZM34.9891 30.0137C35.3044 30.0137 35.5804 29.9184 35.8169 29.7278C36.0534 29.5322 36.1717 29.2563 36.1717 28.9002V28.4413C36.0584 28.5315 35.8908 28.5867 35.6691 28.6068L35.1147 28.6745C34.7846 28.7146 34.553 28.7924 34.4199 28.9077C34.2918 29.0181 34.2278 29.1736 34.2278 29.3742C34.2278 29.5748 34.2894 29.7328 34.4126 29.8482C34.5407 29.9585 34.7328 30.0137 34.9891 30.0137Z" fill="#8D3FFF"/>
<path d="M40.8114 26.5528H41.3731V30.2846C41.3731 30.8062 41.2229 31.2225 40.9223 31.5335C40.6217 31.8445 40.1807 32 39.5992 32C39.1212 32 38.7394 31.8871 38.4536 31.6614C38.1727 31.4407 38.0125 31.1373 37.9731 30.751H38.5644C38.6383 31.2426 38.9833 31.4884 39.5992 31.4884C40.3876 31.4884 40.7818 31.0871 40.7818 30.2846V29.9084C40.4763 30.3197 40.0501 30.5253 39.5031 30.5253C38.966 30.5253 38.5349 30.3423 38.2096 29.9761C37.8894 29.6049 37.7292 29.1109 37.7292 28.4939C37.7292 27.877 37.8894 27.3854 38.2096 27.0193C38.5349 26.6481 38.966 26.4625 39.5031 26.4625C40.0698 26.4625 40.5059 26.6807 40.8114 27.1171V26.5528ZM39.577 29.9836C39.9515 29.9836 40.2497 29.8532 40.4714 29.5924C40.6931 29.3265 40.804 28.9604 40.804 28.4939C40.804 28.0274 40.6931 27.6638 40.4714 27.403C40.2497 27.1371 39.9515 27.0042 39.577 27.0042C39.2075 27.0042 38.9094 27.1396 38.6827 27.4105C38.4609 27.6813 38.3501 28.0425 38.3501 28.4939C38.3501 28.9453 38.4609 29.3065 38.6827 29.5773C38.9094 29.8482 39.2075 29.9836 39.577 29.9836Z" fill="#8D3FFF"/>
<path d="M45.8811 28.4939V28.7046H42.9837C43.0132 29.1309 43.129 29.4494 43.3311 29.6601C43.538 29.8708 43.814 29.9761 44.1589 29.9761C44.6861 29.9761 45.0237 29.7353 45.1715 29.2538H45.785C45.6864 29.635 45.4967 29.9435 45.2159 30.1792C44.9399 30.41 44.5827 30.5253 44.1441 30.5253C43.6169 30.5253 43.1882 30.3423 42.858 29.9761C42.5328 29.6099 42.3702 29.1159 42.3702 28.4939C42.3702 27.882 42.5303 27.3904 42.8506 27.0193C43.1758 26.6481 43.6021 26.4625 44.1293 26.4625C44.6763 26.4625 45.105 26.6556 45.4154 27.0418C45.7259 27.428 45.8811 27.9121 45.8811 28.4939ZM44.1293 27.0117C43.8238 27.0117 43.57 27.1095 43.368 27.3052C43.1709 27.5008 43.0477 27.7867 42.9984 28.1629H45.2454C45.2159 27.8268 45.1025 27.5509 44.9054 27.3353C44.7132 27.1196 44.4545 27.0117 44.1293 27.0117Z" fill="#8D3FFF"/>
<path d="M50.8918 26.4625C51.3156 26.4625 51.6384 26.5879 51.8601 26.8387C52.0868 27.0845 52.2001 27.4055 52.2001 27.8017V30.4351H51.6088V27.8619C51.6088 27.2901 51.3427 27.0042 50.8105 27.0042C50.5445 27.0042 50.3153 27.1146 50.1231 27.3353C49.931 27.5509 49.8349 27.877 49.8349 28.3133V30.4351H49.2436V27.8619C49.2436 27.2901 48.9775 27.0042 48.4453 27.0042C48.1841 27.0042 47.955 27.1146 47.7579 27.3353C47.5657 27.556 47.4696 27.882 47.4696 28.3133V30.4351H46.8783V26.5528H47.4401V27.1246C47.6914 26.6832 48.0585 26.4625 48.5414 26.4625C49.113 26.4625 49.5047 26.7058 49.7166 27.1923C49.9827 26.7058 50.3745 26.4625 50.8918 26.4625Z" fill="#8D3FFF"/>
<path d="M56.7077 28.4939V28.7046H53.8103C53.8399 29.1309 53.9557 29.4494 54.1577 29.6601C54.3646 29.8708 54.6406 29.9761 54.9855 29.9761C55.5128 29.9761 55.8503 29.7353 55.9981 29.2538H56.6116C56.5131 29.635 56.3234 29.9435 56.0425 30.1792C55.7665 30.41 55.4093 30.5253 54.9707 30.5253C54.4435 30.5253 54.0148 30.3423 53.6846 29.9761C53.3594 29.6099 53.1968 29.1159 53.1968 28.4939C53.1968 27.882 53.357 27.3904 53.6772 27.0193C54.0025 26.6481 54.4287 26.4625 54.956 26.4625C55.5029 26.4625 55.9316 26.6556 56.2421 27.0418C56.5525 27.428 56.7077 27.9121 56.7077 28.4939ZM54.956 27.0117C54.6504 27.0117 54.3967 27.1095 54.1946 27.3052C53.9975 27.5008 53.8744 27.7867 53.8251 28.1629H56.0721C56.0425 27.8268 55.9292 27.5509 55.7321 27.3353C55.5399 27.1196 55.2812 27.0117 54.956 27.0117Z" fill="#8D3FFF"/>
<path d="M59.4641 26.4625C59.8879 26.4625 60.218 26.5804 60.4546 26.8161C60.6911 27.0519 60.8093 27.3829 60.8093 27.8093V30.4351H60.218V27.8694C60.218 27.2926 59.9273 27.0042 59.3459 27.0042C59.0699 27.0042 58.826 27.1095 58.6141 27.3202C58.4022 27.5309 58.2963 27.8368 58.2963 28.2381V30.4351H57.705V26.5528H58.2667V27.1321C58.5525 26.6857 58.9516 26.4625 59.4641 26.4625Z" fill="#8D3FFF"/>
<path d="M63.5183 27.0794H62.7348V29.5999C62.7348 29.8206 62.8802 29.931 63.1709 29.931H63.5183V30.4351C63.3557 30.4501 63.2153 30.4576 63.097 30.4576C62.4614 30.4576 62.1435 30.1893 62.1435 29.6526V27.0794H61.5153V26.5528H62.1435V25.4543H62.7348V26.5528H63.5183V27.0794Z" fill="#8D3FFF"/>
<path d="M55.8563 4.76837e-06C64.3553 4.76837e-06 71.2451 7.01741 71.2451 15.6738V4.76837e-06H55.8563Z" fill="#8D3FFF"/>
</svg>
