<svg width="20" height="20" viewBox="0 0 20 20" fill="none" xmlns="http://www.w3.org/2000/svg">
<g id="home-cog">
<path id="Vector" d="M7.5 17.5V12.5C7.5 12.058 7.67559 11.634 7.98816 11.3215C8.30072 11.0089 8.72464 10.8333 9.16667 10.8333H10.5M16.6667 9.16667L10 2.5L2.5 10H4.16667V15.8333C4.16667 16.2754 4.34226 16.6993 4.65482 17.0118C4.96738 17.3244 5.39131 17.5 5.83333 17.5H9.29917M15 16.6667C14.558 16.6667 14.134 16.4911 13.8215 16.1785C13.5089 15.866 13.3333 15.442 13.3333 15C13.3333 14.558 13.5089 14.134 13.8215 13.8215C14.134 13.5089 14.558 13.3333 15 13.3333M15 16.6667C15.442 16.6667 15.866 16.4911 16.1785 16.1785C16.4911 15.866 16.6667 15.442 16.6667 15C16.6667 14.558 16.4911 14.134 16.1785 13.8215C15.866 13.5089 15.442 13.3333 15 13.3333M15 16.6667V17.9167M15 13.3333V12.0833M17.5267 13.5417L16.4442 14.1667M13.5583 15.8333L12.475 16.4583M12.475 13.5417L13.5583 14.1667M16.4442 15.8333L17.5275 16.4583" stroke="white" stroke-opacity="0.7" stroke-width="1.5" stroke-linecap="round" stroke-linejoin="round"/>
</g>
</svg>
