<svg width="20" height="20" viewBox="0 0 20 20" fill="none" xmlns="http://www.w3.org/2000/svg">
<g id="calendar-due">
<path id="Vector" d="M13.333 2.5V5.83333M6.66634 2.5V5.83333M3.33301 9.16667H16.6663M3.33301 5.83333C3.33301 5.39131 3.5086 4.96738 3.82116 4.65482C4.13372 4.34226 4.55765 4.16667 4.99967 4.16667H14.9997C15.4417 4.16667 15.8656 4.34226 16.1782 4.65482C16.4907 4.96738 16.6663 5.39131 16.6663 5.83333V15.8333C16.6663 16.2754 16.4907 16.6993 16.1782 17.0118C15.8656 17.3244 15.4417 17.5 14.9997 17.5H4.99967C4.55765 17.5 4.13372 17.3244 3.82116 17.0118C3.5086 16.6993 3.33301 16.2754 3.33301 15.8333V5.83333ZM9.16634 13.3333C9.16634 13.5543 9.25414 13.7663 9.41042 13.9226C9.5667 14.0789 9.77866 14.1667 9.99967 14.1667C10.2207 14.1667 10.4326 14.0789 10.5889 13.9226C10.7452 13.7663 10.833 13.5543 10.833 13.3333C10.833 13.1123 10.7452 12.9004 10.5889 12.7441C10.4326 12.5878 10.2207 12.5 9.99967 12.5C9.77866 12.5 9.5667 12.5878 9.41042 12.7441C9.25414 12.9004 9.16634 13.1123 9.16634 13.3333Z" stroke="white" stroke-opacity="0.7" stroke-width="1.5" stroke-linecap="round" stroke-linejoin="round"/>
</g>
</svg>
