<svg width="20" height="20" viewBox="0 0 20 20" fill="none" xmlns="http://www.w3.org/2000/svg">
<g id="tie">
<path id="Vector" d="M11.2503 5.83333L13.3337 15L10.0003 18.3333L6.66699 15L8.75033 5.83333M11.2503 5.83333L12.0778 3.62583C12.1251 3.49978 12.1411 3.36416 12.1245 3.23057C12.1079 3.09699 12.0592 2.96941 11.9825 2.85875C11.9058 2.7481 11.8035 2.65767 11.6843 2.59519C11.565 2.53271 11.4324 2.50005 11.2978 2.5H8.70283C8.56821 2.50005 8.43561 2.53271 8.31637 2.59519C8.19713 2.65767 8.09481 2.7481 8.01814 2.85875C7.94148 2.96941 7.89276 3.09699 7.87617 3.23057C7.85957 3.36416 7.87558 3.49978 7.92283 3.62583L8.75033 5.83333M11.2503 5.83333H8.75033M11.2503 5.83333L15.417 10.4167" stroke="white" stroke-opacity="0.7" stroke-width="1.5" stroke-linecap="round" stroke-linejoin="round"/>
</g>
</svg>
