<svg width="20" height="20" viewBox="0 0 20 20" fill="none" xmlns="http://www.w3.org/2000/svg">
<g id="heart-handshake">
<path id="Vector" d="M16.2501 10.4766L10.0001 16.6666L3.75009 10.4766C3.33784 10.0754 3.01312 9.59325 2.79638 9.06043C2.57963 8.52762 2.47556 7.9557 2.4907 7.38068C2.50585 6.80567 2.63989 6.24002 2.88439 5.71935C3.12888 5.19868 3.47853 4.73428 3.91133 4.35539C4.34412 3.97649 4.85068 3.69131 5.3991 3.5178C5.94752 3.3443 6.52593 3.28622 7.0979 3.34724C7.66986 3.40825 8.223 3.58703 8.72248 3.87233C9.22196 4.15762 9.65696 4.54324 10.0001 5.0049C10.3447 4.54659 10.7802 4.16434 11.2793 3.88207C11.7785 3.59981 12.3305 3.42361 12.9009 3.3645C13.4712 3.3054 14.0477 3.36465 14.5941 3.53856C15.1405 3.71247 15.6451 3.9973 16.0764 4.37521C16.5077 4.75311 16.8563 5.21597 17.1004 5.73481C17.3446 6.25365 17.479 6.81731 17.4953 7.39049C17.5117 7.96368 17.4095 8.53406 17.1952 9.06594C16.9809 9.59783 16.6592 10.0798 16.2501 10.4816M10 4.99991L7.25585 7.74408C7.09962 7.90035 7.01186 8.11227 7.01186 8.33324C7.01186 8.55421 7.09962 8.76614 7.25585 8.92241L7.70835 9.37491C8.28335 9.94991 9.21668 9.94991 9.79168 9.37491L10.625 8.54157C11.1223 8.0443 11.7968 7.76493 12.5 7.76493C13.2033 7.76493 13.8777 8.0443 14.375 8.54157L16.25 10.4166M10.4167 12.9166L12.0834 14.5832M12.5 10.8332L14.1667 12.4999" stroke="white" stroke-opacity="0.7" stroke-width="2" stroke-linecap="round" stroke-linejoin="round"/>
</g>
</svg>
